<svg width="18" height="18" viewBox="0 0 18 18" fill="none" xmlns="http://www.w3.org/2000/svg">
<path fill-rule="evenodd" clip-rule="evenodd" d="M8.99885 3.14995C5.76799 3.14995 3.14885 5.76909 3.14885 8.99995V9.82816L5.43247 9.80872C6.18252 9.80234 6.79396 10.4086 6.79396 11.1587V14.7C6.79396 15.4455 6.18954 16.05 5.44396 16.05H3.29885C2.55327 16.05 1.94885 15.4455 1.94885 14.7V8.99995C1.94885 5.10634 5.10525 1.94995 8.99885 1.94995C12.8925 1.94995 16.0489 5.10634 16.0489 8.99995V14.7C16.0489 15.4455 15.4444 16.05 14.6989 16.05H12.5527C11.8071 16.05 11.2027 15.4455 11.2027 14.7V11.1833C11.2027 10.4377 11.8071 9.83328 12.5527 9.83328H14.8489V8.99995C14.8489 5.76909 12.2297 3.14995 8.99885 3.14995ZM14.8489 11.0333H12.5527C12.4698 11.0333 12.4027 11.1004 12.4027 11.1833V14.7C12.4027 14.7828 12.4698 14.85 12.5527 14.85H14.6989C14.7817 14.85 14.8489 14.7828 14.8489 14.7V11.0333ZM3.14885 11.0282V14.7C3.14885 14.7828 3.21601 14.85 3.29885 14.85H5.44396C5.5268 14.85 5.59396 14.7828 5.59396 14.7V11.1587C5.59396 11.0753 5.52602 11.008 5.44268 11.0087L3.14885 11.0282Z" fill="#33363D"/>
</svg>
