<svg width="149" height="41" viewBox="0 0 149 41" fill="none" xmlns="http://www.w3.org/2000/svg">
<g clip-path="url(#clip0_48_317)">
<path d="M0.147184 20.8604C0.287706 20.9606 5.64092 24.7522 5.76806 24.8389C5.8952 24.9324 6.0491 25.0258 6.15617 24.7722C7.55469 21.548 9.20081 18.7644 10.7867 16.4013C12.3726 14.0449 15.3436 10.5003 18.7028 7.977C18.937 7.80344 18.9303 7.85684 18.9303 7.5164C18.9303 7.17596 19.0373 0.527309 19.0373 0.260295C19.0373 0.053359 18.9169 -0.106849 18.7362 0.0867358C16.267 2.77023 15.1696 4.33893 13.5101 7.04245C11.8506 9.74597 9.98371 13.4041 9.91011 13.5509C9.82981 13.6978 9.7562 13.7645 9.4417 13.9314C9.1272 14.0983 7.38071 15.0262 5.1792 16.5348C2.9777 18.0434 0.488452 20.1862 0.281015 20.3464C0.0735776 20.5066 -0.160625 20.6401 0.147184 20.8538" fill="#EC252C"/>
<path d="M38.9313 5.40715C34.6487 5.34707 29.4427 6.00793 24.0493 8.56459C22.3631 9.36563 20.65 10.3603 18.9504 11.5685C20.2419 10.8943 22.0686 9.98644 23.3467 9.53252C25.5215 8.75818 27.9505 8.39103 28.4323 8.33095C28.9141 8.27755 28.5862 8.48449 28.352 8.62467C28.1178 8.77153 25.1467 10.8476 23.1794 12.6499C21.2121 14.4522 19.6129 15.9409 17.05 19.2785C16.9095 19.4588 16.7823 19.6123 16.9496 20.0395C19.0508 25.5 20.9378 28.5439 23.2129 31.6079C23.4605 31.9417 23.3467 31.955 23.1125 31.8349C22.8783 31.7147 22.7913 31.6747 21.1318 30.6734C19.479 29.672 15.5913 27.1087 13.2358 24.7189C12.928 24.4052 12.8277 24.3985 12.4931 24.6989C11.0879 25.9739 8.89305 28.09 7.36738 30.2595C7.09303 30.6466 7.10641 30.3329 7.1198 30.0726C7.13318 29.8122 7.18002 28.7709 7.28039 27.8564C7.42761 26.5146 7.62835 25.5066 7.76218 24.9259C7.25363 26.0407 6.79191 27.2088 6.41049 28.4371C5.97555 29.8256 5.23279 32.5825 5.23279 36.4542C5.23279 37.7425 5.23279 38.4835 5.30639 38.7772C5.35324 38.9775 5.49376 38.9308 5.68112 38.6037C5.84841 38.31 6.59786 37.035 7.68188 35.5063C9.03357 33.6038 10.8938 31.2808 12.5198 29.919C12.7072 29.7588 12.8477 29.5652 13.1555 29.8857C13.5102 30.2528 15.1229 31.7014 19.7534 34.6051C24.3839 37.5089 30.0115 39.7585 34.3074 40.9C35.4718 41.2071 35.1305 40.7131 34.8093 40.406C31.8583 37.6291 27.8033 32.0818 25.9564 29.0446C22.9586 24.1248 22.0419 21.2745 21.9147 20.9741C21.7876 20.6804 21.8545 20.5001 22.0419 20.2465C22.2493 19.9728 23.8084 17.8901 26.3378 15.3868C28.8739 12.8835 33.0561 9.55922 36.0205 7.67677C37.8874 6.48856 38.3558 6.09471 38.8978 5.76762C39.1655 5.60741 39.2525 5.58071 39.2525 5.49393C39.2525 5.3938 39.0986 5.40047 38.938 5.3938" fill="white"/>
<path d="M59.8489 14.0784H53.6794C53.6794 14.0784 48.741 19.5322 47.8243 20.5535V14.0784H41.1194C40.912 14.0784 40.9655 14.252 41.1194 14.3921C41.6079 14.8127 42.3506 15.6071 42.3506 16.5216V29.2047C42.3506 30.0191 42.9127 30.6399 43.7692 30.6399H47.8243V24.1649C48.741 25.1862 53.6794 30.6399 53.6794 30.6399H59.8489C59.8489 30.6399 52.9232 22.763 52.5619 22.3558C52.9232 21.9486 59.8489 14.0717 59.8489 14.0717M105.612 22.2156C105.612 27.9698 109.627 30.9804 113.602 30.9804C115.997 30.9804 118.56 30.2194 120.3 28.9978L120.434 28.9044V21.4213H115.181V24.4719H117.162V26.5413C116.265 27.1354 115.188 27.4625 114.023 27.4625C111.621 27.4625 109.199 25.6735 109.199 22.2557C109.199 19.0582 110.999 16.9087 113.689 16.9087C116.071 16.9087 118.025 18.117 118.761 18.6377L119.022 18.8246L120.467 15.4602L120.22 15.3133C120.093 15.2399 116.981 13.491 113.896 13.491C109.781 13.491 105.619 16.4882 105.619 22.2156M68.8825 27.3089V14.0584H63.9642C63.7568 14.0584 63.8103 14.2319 63.9642 14.3721C64.446 14.7927 65.1955 15.587 65.1955 16.5016V29.4985C65.1955 30.1927 65.5635 30.6199 66.2996 30.6199H76.5644V27.3023H68.8825M81.6231 27.1754V23.9245H87.8329V20.3065H81.6231V17.2425H88.6091V13.9249H76.7049C76.4974 13.9249 76.5577 14.0984 76.7049 14.2386C77.1867 14.6592 77.9361 15.4535 77.9361 16.368V29.365C77.9361 30.1593 78.2506 30.4864 79.0469 30.4864H89.0708V27.1688H81.6231M132.492 13.9182V23.2503C132.492 25.8137 132.03 27.4157 129.32 27.4157C126.61 27.4157 125.807 26.0807 125.807 23.3371V13.9182H120.929C120.715 13.9182 120.769 14.0917 120.929 14.2319C121.411 14.6525 122.154 15.4468 122.154 16.3614V23.8845C122.154 28.624 124.228 31.0138 129.3 31.0138C134.372 31.0138 136.146 28.8042 136.146 23.8845V13.9182H132.492ZM95.9162 23.6375C96.1437 22.9099 97.7029 17.9635 97.8166 17.5963H98.3452C98.4657 17.9635 100.025 22.9099 100.259 23.6375H95.9162ZM100.634 13.9382H94.2969C94.0961 13.9382 94.1497 14.1118 94.2969 14.252C94.7787 14.6725 94.946 15.6071 94.6448 16.5149L89.8336 30.4998H93.7482C93.7482 30.4998 94.7118 27.4692 94.8255 27.0953H101.343C101.463 27.4692 102.42 30.4998 102.42 30.4998H106.342L100.64 13.9382M141.552 27.1688V23.9179H147.762V20.2998H141.552V17.2358H148.532V13.9182H136.634C136.427 13.9182 136.48 14.0917 136.634 14.2319C137.116 14.6525 137.865 15.4468 137.865 16.3614V29.3583C137.865 30.1526 138.18 30.4797 138.976 30.4797H149V27.1621H141.559" fill="white"/>
</g>
<defs>
<clipPath id="clip0_48_317">
<rect width="149" height="41" fill="white"/>
</clipPath>
</defs>
</svg>
