<svg width="17" height="17" viewBox="0 0 17 17" fill="none" xmlns="http://www.w3.org/2000/svg">
<g clip-path="url(#clip0_344_267)">
<path fill-rule="evenodd" clip-rule="evenodd" d="M16.1592 9.68622C16.6069 9.82738 16.8555 10.3048 16.7143 10.7525L16.5024 11.4244L16.2186 12.1095L15.8762 12.7673L15.4778 13.3928L15.0263 13.9811L14.5253 14.5279L13.9785 15.0289L13.3902 15.4804L12.7647 15.8788L12.1398 16.2041C11.7234 16.4209 11.2101 16.2591 10.9934 15.8427C10.7766 15.4263 10.9384 14.913 11.3548 14.6962L11.9139 14.4052L12.4142 14.0865L12.8847 13.7254L13.322 13.3247L13.7228 12.8873L14.0839 12.4168L14.4026 11.9165L14.6765 11.3904L14.9034 10.8424L15.093 10.2413C15.2341 9.79356 15.7115 9.54505 16.1592 9.68622Z" fill="#A3AFFF"/>
<path fill-rule="evenodd" clip-rule="evenodd" d="M16.2321 8.01855C15.7738 8.12016 15.3199 7.83099 15.2183 7.37268L15.0818 6.75735L14.9035 6.19165L14.6765 5.64365L14.4026 5.11752L14.0839 4.61725L13.7228 4.14667L13.3221 3.70936L12.8848 3.30863L12.4142 2.94754L11.9139 2.62884L11.3878 2.35495L10.8398 2.12796L10.2741 1.9496L9.695 1.82121L9.10692 1.74379L8.51433 1.71792L7.92175 1.74379L7.33367 1.82121L6.75457 1.9496L6.18888 2.12796L5.64087 2.35495L5.11474 2.62884L4.61448 2.94754L4.1439 3.30863L3.70658 3.70936L3.30585 4.14668L2.94477 4.61725L2.62607 5.11751L2.35217 5.64365L2.12519 6.19164L1.94682 6.75735L1.81844 7.33644L1.74102 7.92452L1.71514 8.51712L1.74102 9.1097L1.81844 9.69778L1.94682 10.2769L2.12519 10.8426L2.35217 11.3906L2.62607 11.9167L2.94476 12.417L3.30585 12.8875L3.70659 13.3249L4.1439 13.7256L4.61447 14.0867L5.11475 14.4054L5.64087 14.6793L6.18886 14.9063L6.75458 15.0846L7.33367 15.213L7.92174 15.2904L8.55141 15.3179C9.02041 15.3384 9.384 15.7352 9.36353 16.2042C9.34305 16.6732 8.94625 17.0368 8.47726 17.0163L7.77344 16.9856L7.03819 16.8888L6.31416 16.7283L5.60689 16.5053L4.92174 16.2215L4.26393 15.879L3.63847 15.4806L3.05012 15.0291L2.50336 14.5281L2.00234 13.9813L1.55088 13.393L1.15242 12.7675L0.809985 12.1097L0.526189 11.4246L0.303184 10.7173L0.142672 9.99326L0.0458725 9.258L0.0135251 8.51711L0.0458754 7.77622L0.142673 7.04096L0.303185 6.31694L0.526187 5.60966L0.809984 4.92451L1.15242 4.2667L1.55088 3.64125L2.00234 3.0529L2.50335 2.50613L3.05012 2.00511L3.63847 1.55365L4.26393 1.15519L4.92174 0.81276L5.60689 0.528962L6.31416 0.305959L7.03818 0.145447L7.77344 0.0486483L8.51433 0.0163002L9.25523 0.0486482L9.99049 0.145447L10.7145 0.305958L11.4218 0.528962L12.1069 0.81276L12.7647 1.15519L13.3902 1.55365L13.9785 2.00511L14.5253 2.50613L15.0263 3.05289L15.4778 3.64125L15.8763 4.2667L16.2187 4.92451L16.5025 5.60966L16.7255 6.31694L16.878 7.00473C16.9796 7.46304 16.6904 7.91695 16.2321 8.01855Z" fill="#EBEFFF"/>
</g>
<defs>
<clipPath id="clip0_344_267">
<rect width="17" height="17" fill="white"/>
</clipPath>
</defs>
</svg>
