<svg width="18" height="18" viewBox="0 0 18 18" fill="none" xmlns="http://www.w3.org/2000/svg">
<g clip-path="url(#clip0_4_1093)">
<path d="M9 6L11.8532 8.07292L9 6ZM9 6L6.14685 8.07292L9 6ZM9 6V3.75V6ZM11.8532 8.07292L10.7634 11.4271L11.8532 8.07292ZM11.8532 8.07292L13.875 7.125L11.8532 8.07292ZM10.7634 11.4271H7.23667H10.7634ZM10.7634 11.4271L12 13.125L10.7634 11.4271ZM7.23667 11.4271L6.14685 8.07292L7.23667 11.4271ZM7.23667 11.4271L6 13.125L7.23667 11.4271ZM6.14685 8.07292L4.125 7.125L6.14685 8.07292ZM4.125 7.125L1.53704 9.75L4.125 7.125ZM4.125 7.125L3.375 4.03908L4.125 7.125ZM13.875 7.125L16.4629 9.75L13.875 7.125ZM13.875 7.125L14.625 4.03908L13.875 7.125ZM9 3.75L6.46826 1.93807L9 3.75ZM9 3.75L11.5318 1.93807L9 3.75ZM6 13.125L2.50337 12.75L6 13.125ZM6 13.125L7.875 16.4162L6 13.125ZM12 13.125L15.4967 12.75L12 13.125ZM12 13.125L10.125 16.4162L12 13.125ZM16.5 9C16.5 13.1421 13.1421 16.5 9 16.5C4.85786 16.5 1.5 13.1421 1.5 9C1.5 4.85786 4.85786 1.5 9 1.5C13.1421 1.5 16.5 4.85786 16.5 9Z" stroke="#33363D" stroke-width="1.5" stroke-linecap="round" stroke-linejoin="round"/>
</g>
<defs>
<clipPath id="clip0_4_1093">
<rect width="18" height="18" fill="white"/>
</clipPath>
</defs>
</svg>
